<svg width="500" height="500" viewBox="0 0 500 500" fill="none" xmlns="http://www.w3.org/2000/svg">
<path d="M104.74 442C185.31 484.47 315.94 484.47 396.51 442C477.08 399.53 477.09 330.69 396.51 288.23C315.93 245.77 185.31 245.76 104.73 288.23C24.15 330.7 24.16 399.51 104.74 442Z" fill="#F5F5F5"/>
<path d="M70.19 388.85L73.93 391C74.601 391.34 75.3427 391.517 76.095 391.517C76.8473 391.517 77.5889 391.34 78.26 391L251.08 291.23C251.342 291.144 251.571 290.978 251.733 290.754C251.895 290.53 251.982 290.261 251.982 289.985C251.982 289.709 251.895 289.44 251.733 289.216C251.571 288.993 251.342 288.826 251.08 288.74L247.37 286.62C246.699 286.28 245.957 286.103 245.205 286.103C244.453 286.103 243.711 286.28 243.04 286.62L70.19 386.35C69.9288 386.439 69.7019 386.607 69.5412 386.831C69.3805 387.055 69.2941 387.324 69.2941 387.6C69.2941 387.876 69.3805 388.145 69.5412 388.369C69.7019 388.593 69.9288 388.762 70.19 388.85Z" fill="#E0E0E0"/>
<path d="M319.68 424.79C348.807 424.79 372.42 411.847 372.42 395.88C372.42 379.914 348.807 366.97 319.68 366.97C290.552 366.97 266.94 379.914 266.94 395.88C266.94 411.847 290.552 424.79 319.68 424.79Z" fill="#E0E0E0"/>
<path d="M380.61 346.12C403.082 346.12 421.3 336.131 421.3 323.81C421.3 311.489 403.082 301.5 380.61 301.5C358.137 301.5 339.92 311.489 339.92 323.81C339.92 336.131 358.137 346.12 380.61 346.12Z" fill="#E0E0E0"/>
<path d="M400.51 301.39C400.45 296.28 404.02 285.66 409.24 278.96C414.46 272.26 422.73 267.31 428.68 269.27C434.22 271.09 433.68 278.33 427.07 283.2C420.46 288.07 410.46 294.2 407.61 302.54L401.56 312.78L400.51 301.39Z" fill="#2D87DA"/>
<path opacity="0.1" d="M400.51 301.39C400.45 296.28 404.02 285.66 409.24 278.96C414.46 272.26 422.73 267.31 428.68 269.27C434.22 271.09 433.68 278.33 427.07 283.2C420.46 288.07 410.46 294.2 407.61 302.54L401.56 312.78L400.51 301.39Z" fill="black"/>
<path d="M400.22 308.39C400.301 308.38 400.377 308.345 400.436 308.289C400.496 308.234 400.536 308.16 400.55 308.08C403.76 290.6 417.7 276.26 426.1 273.03C426.194 272.994 426.27 272.922 426.311 272.83C426.353 272.738 426.356 272.634 426.32 272.54C426.302 272.494 426.276 272.453 426.242 272.418C426.208 272.383 426.168 272.355 426.124 272.335C426.079 272.316 426.031 272.305 425.982 272.304C425.934 272.303 425.885 272.312 425.84 272.33C417.27 275.62 403.07 290.2 399.84 307.95C399.831 307.998 399.832 308.047 399.843 308.095C399.853 308.142 399.873 308.187 399.901 308.227C399.929 308.267 399.964 308.301 400.005 308.327C400.046 308.354 400.092 308.371 400.14 308.38L400.22 308.39Z" fill="white"/>
<path d="M403 319.52C403.79 316.64 407.24 311.86 412.86 307.87C419.09 303.47 427.01 301.38 428.8 297.99C430.95 293.91 427.49 290.13 421.05 290.99C414.61 291.85 403.39 300.8 401.73 314.06L403 319.52Z" fill="#2D87DA"/>
<path d="M401.67 316.52C401.742 316.513 401.81 316.485 401.866 316.441C401.923 316.397 401.966 316.337 401.99 316.27C407.15 301.27 418.49 295.89 423.76 295.14C423.857 295.125 423.945 295.073 424.005 294.994C424.065 294.916 424.091 294.818 424.08 294.72C424.074 294.671 424.058 294.624 424.034 294.581C424.009 294.539 423.976 294.501 423.937 294.472C423.898 294.442 423.853 294.42 423.806 294.408C423.758 294.396 423.709 294.393 423.66 294.4C417.83 295.23 406.56 300.71 401.28 316.03C401.264 316.076 401.258 316.124 401.261 316.173C401.264 316.221 401.276 316.269 401.298 316.312C401.319 316.356 401.349 316.395 401.385 316.427C401.422 316.459 401.464 316.484 401.51 316.5C401.561 316.521 401.616 316.528 401.67 316.52Z" fill="white"/>
<path d="M74.85 386.33L74.09 385.89C73.4508 385.474 72.9186 384.913 72.5364 384.253C72.1542 383.593 71.9328 382.852 71.89 382.09V125.83C71.9336 125.067 72.1553 124.325 72.5373 123.664C72.9194 123.002 73.4512 122.439 74.09 122.02L239.21 26.7001C239.892 26.3547 240.646 26.1748 241.41 26.1748C242.174 26.1748 242.928 26.3547 243.61 26.7001L244.36 27.14C245.001 27.5567 245.535 28.1191 245.917 28.7812C246.299 29.4434 246.52 30.1865 246.56 30.9501V287.2C246.52 287.964 246.299 288.707 245.917 289.369C245.535 290.031 245.001 290.593 244.36 291.01L79.25 386.33C78.5681 386.675 77.8144 386.855 77.05 386.855C76.2856 386.855 75.532 386.675 74.85 386.33Z" fill="#2D87DA"/>
<path opacity="0.4" d="M246.54 30.6C246.39 29.4601 245.47 29.04 244.37 29.67L79.24 125C78.5935 125.408 78.0604 125.972 77.69 126.64L72.54 123.64C72.9153 122.972 73.4515 122.408 74.1 122L239.21 26.7001C239.892 26.3547 240.646 26.1748 241.41 26.1748C242.174 26.1748 242.928 26.3547 243.61 26.7001L244.37 27.14C244.955 27.5316 245.45 28.0421 245.824 28.6384C246.198 29.2346 246.442 29.9031 246.54 30.6Z" fill="white"/>
<path opacity="0.1" d="M78.88 386.5C78.239 386.755 77.5512 386.872 76.8618 386.843C76.1724 386.814 75.497 386.639 74.88 386.33L74.11 385.89C73.4708 385.472 72.9393 384.909 72.5587 384.247C72.1782 383.585 71.9593 382.843 71.92 382.08V125.83C71.9432 125.067 72.1637 124.323 72.56 123.67L77.71 126.67C77.3014 127.311 77.0575 128.042 77 128.8V385.06C77 386.32 77.84 386.91 78.88 386.5Z" fill="black"/>
<path d="M96.52 293.65L95.76 293.21C95.1208 292.794 94.5886 292.233 94.2064 291.573C93.8242 290.912 93.6028 290.172 93.56 289.41V243.35C93.6028 242.587 93.8242 241.845 94.2063 241.183C94.5884 240.521 95.1206 239.958 95.76 239.54L245.67 152.91C246.35 152.565 247.102 152.385 247.865 152.385C248.628 152.385 249.38 152.565 250.06 152.91L250.82 153.35C251.461 153.767 251.995 154.329 252.377 154.991C252.759 155.653 252.98 156.396 253.02 157.16V203.22C252.98 203.982 252.759 204.724 252.377 205.384C251.994 206.045 251.461 206.605 250.82 207.02L100.92 293.65C100.238 293.995 99.4844 294.175 98.72 294.175C97.9556 294.175 97.2019 293.995 96.52 293.65Z" fill="#EBEBEB"/>
<path d="M253 156.81C252.85 155.67 251.93 155.25 250.82 155.88L100.91 242.52C100.264 242.928 99.7304 243.492 99.36 244.16L94.21 241.16C94.5808 240.486 95.1178 239.918 95.77 239.51L245.67 152.88C246.35 152.535 247.102 152.355 247.865 152.355C248.628 152.355 249.38 152.535 250.06 152.88L250.82 153.32C251.413 153.71 251.915 154.224 252.292 154.827C252.668 155.429 252.909 156.106 253 156.81Z" fill="#FAFAFA"/>
<path d="M100.54 293.83C99.8986 294.085 99.2103 294.201 98.5207 294.17C97.831 294.139 97.1559 293.962 96.54 293.65L95.76 293.22C95.1254 292.798 94.5979 292.234 94.2195 291.573C93.8411 290.911 93.6221 290.171 93.58 289.41V243.35C93.6032 242.587 93.8237 241.843 94.22 241.19L99.37 244.19C98.9778 244.845 98.7545 245.587 98.72 246.35V292.42C98.71 293.64 99.51 294.23 100.54 293.83Z" fill="#E0E0E0"/>
<path d="M122.11 239.43C130.66 234.49 137.59 238.33 137.59 248.01C137.59 257.69 130.65 269.45 122.09 274.28C113.53 279.11 106.6 275.28 106.6 265.7C106.6 256.12 113.56 244.37 122.11 239.43Z" fill="#2D87DA"/>
<path d="M96.52 356.07L95.76 355.63C95.1208 355.214 94.5886 354.653 94.2064 353.993C93.8242 353.333 93.6028 352.592 93.56 351.83V305.77C93.6028 305.007 93.8242 304.265 94.2063 303.603C94.5884 302.942 95.1206 302.379 95.76 301.96L245.67 215.33C246.35 214.985 247.102 214.805 247.865 214.805C248.628 214.805 249.38 214.985 250.06 215.33L250.82 215.77C251.462 216.186 251.996 216.749 252.378 217.411C252.76 218.073 252.98 218.817 253.02 219.58V265.64C252.98 266.402 252.759 267.144 252.377 267.805C251.994 268.465 251.461 269.026 250.82 269.44L100.92 356.07C100.238 356.416 99.4844 356.596 98.72 356.596C97.9556 356.596 97.2019 356.416 96.52 356.07Z" fill="#EBEBEB"/>
<path d="M253 219.22C252.85 218.08 251.93 217.67 250.82 218.3L100.91 304.94C100.266 305.347 99.7335 305.907 99.36 306.57L94.21 303.57C94.5891 302.924 95.1258 302.384 95.77 302L245.67 215.37C246.35 215.025 247.102 214.845 247.865 214.845C248.628 214.845 249.38 215.025 250.06 215.37L250.82 215.81C251.405 216.191 251.902 216.692 252.278 217.28C252.654 217.868 252.9 218.53 253 219.22Z" fill="#FAFAFA"/>
<path d="M100.54 356.24C99.8993 356.497 99.2113 356.615 98.5217 356.585C97.8321 356.556 97.1566 356.381 96.54 356.07L95.76 355.63C95.1238 355.21 94.595 354.647 94.2164 353.985C93.8378 353.323 93.6198 352.582 93.58 351.82V305.77C93.6018 305.007 93.8224 304.262 94.22 303.61L99.37 306.61C98.9789 307.27 98.7557 308.015 98.72 308.78V354.85C98.71 356.06 99.51 356.65 100.54 356.24Z" fill="#E0E0E0"/>
<path d="M122.11 301.85C130.66 296.91 137.59 300.75 137.59 310.43C137.59 320.11 130.65 331.87 122.09 336.7C113.53 341.53 106.6 337.7 106.6 328.12C106.6 318.54 113.56 306.78 122.11 301.85Z" fill="#2D87DA"/>
<path d="M96.52 189.27L95.76 188.83C95.1206 188.412 94.5884 187.849 94.2063 187.187C93.8242 186.525 93.6028 185.783 93.56 185.02V139C93.6028 138.238 93.8242 137.498 94.2064 136.837C94.5886 136.177 95.1208 135.616 95.76 135.2L245.67 48.53C246.35 48.1848 247.102 48.0049 247.865 48.0049C248.628 48.0049 249.38 48.1848 250.06 48.53L250.82 48.97C251.461 49.3845 251.994 49.945 252.377 50.6056C252.759 51.2661 252.98 52.0078 253.02 52.77V98.83C252.98 99.5935 252.759 100.337 252.377 100.999C251.995 101.661 251.461 102.223 250.82 102.64L100.92 189.27C100.238 189.615 99.4844 189.795 98.72 189.795C97.9556 189.795 97.2019 189.615 96.52 189.27Z" fill="#EBEBEB"/>
<path d="M253 52.4202C252.85 51.2802 251.93 50.8702 250.82 51.5002L100.91 138.14C100.262 138.541 99.7278 139.103 99.36 139.77L94.21 136.77C94.5785 136.097 95.1162 135.532 95.77 135.13L245.67 48.5002C246.35 48.155 247.102 47.9751 247.865 47.9751C248.628 47.9751 249.38 48.155 250.06 48.5002L250.82 48.9402C251.413 49.3285 251.915 49.8407 252.291 50.4414C252.668 51.0421 252.909 51.7172 253 52.4202Z" fill="#FAFAFA"/>
<path d="M100.54 189.44C99.8993 189.697 99.2113 189.814 98.5217 189.785C97.8321 189.756 97.1566 189.58 96.54 189.27L95.76 188.83C95.1193 188.409 94.587 187.843 94.2064 187.177C93.8259 186.512 93.6078 185.766 93.57 185V139C93.5915 138.233 93.812 137.486 94.21 136.83L99.36 139.83C98.9674 140.489 98.7441 141.234 98.71 142V188C98.71 189.26 99.51 189.84 100.54 189.44Z" fill="#E0E0E0"/>
<path d="M122.11 135.05C130.66 130.11 137.59 133.95 137.59 143.62C137.59 153.29 130.65 165.06 122.09 169.9C113.53 174.74 106.6 170.9 106.6 161.32C106.6 151.74 113.56 140 122.11 135.05Z" fill="#2D87DA"/>
<path d="M107.06 247.75L106.3 247.31C105.659 246.894 105.125 246.331 104.743 245.669C104.361 245.007 104.14 244.264 104.1 243.5V197.44C104.142 196.677 104.363 195.935 104.745 195.273C105.127 194.611 105.66 194.048 106.3 193.63L256.2 107C256.882 106.655 257.636 106.475 258.4 106.475C259.164 106.475 259.918 106.655 260.6 107L261.36 107.43C261.999 107.849 262.531 108.412 262.913 109.074C263.295 109.736 263.516 110.478 263.56 111.24V157.3C263.517 158.063 263.296 158.806 262.914 159.467C262.532 160.129 261.999 160.692 261.36 161.11L111.45 247.75C110.77 248.096 110.018 248.275 109.255 248.275C108.492 248.275 107.74 248.096 107.06 247.75Z" fill="#37474F"/>
<path d="M263.54 110.9C263.39 109.76 262.47 109.34 261.36 109.98L111.45 196.62C110.801 197.024 110.265 197.584 109.89 198.25L104.75 195.25C105.117 194.577 105.651 194.009 106.3 193.6L256.2 107C256.882 106.655 257.636 106.475 258.4 106.475C259.164 106.475 259.918 106.655 260.6 107L261.36 107.43C261.951 107.819 262.451 108.329 262.828 108.928C263.204 109.527 263.447 110.199 263.54 110.9Z" fill="#455A64"/>
<path d="M111.08 247.92C110.439 248.176 109.751 248.293 109.062 248.263C108.372 248.234 107.697 248.059 107.08 247.75L106.31 247.31C105.672 246.891 105.141 246.328 104.761 245.666C104.38 245.005 104.161 244.263 104.12 243.5V197.44C104.147 196.676 104.371 195.932 104.77 195.28L109.91 198.28C109.521 198.936 109.301 199.678 109.27 200.44V246.51C109.25 247.73 110 248.32 111.08 247.92Z" fill="#263238"/>
<path d="M132.65 193.52C141.2 188.59 148.13 192.43 148.13 202.1C148.13 211.77 141.19 223.54 132.63 228.38C124.07 233.22 117.13 229.38 117.14 219.8C117.15 210.22 124.1 198.46 132.65 193.52Z" fill="#F5F5F5"/>
<path d="M133 221.351C132.73 221.556 132.403 221.674 132.064 221.69C131.725 221.706 131.389 221.619 131.1 221.441L124.3 216.301C123.39 215.611 123.5 213.721 124.55 212.061C125.6 210.401 127.19 209.621 128.09 210.311L132.83 213.901L146 185.611C146.82 183.841 148.39 182.611 149.51 182.961C150.63 183.311 150.87 184.961 150.04 186.701L135 219.001C134.584 219.93 133.915 220.723 133.07 221.291L133 221.351Z" fill="#2D87DA"/>
<path d="M263.52 179.3L259.17 176.79C257.28 175.71 254.97 176.79 253.75 177.53L251 176C247.71 174 243.13 178.17 242.11 179.16L240.93 178.49C237.44 176.39 231.09 182.02 231.09 182.02V161L233.85 159.67L229.46 157.13C228.831 156.851 228.14 156.742 227.455 156.814C226.771 156.886 226.117 157.136 225.56 157.54C223.936 158.598 222.584 160.024 221.614 161.702C220.644 163.381 220.085 165.265 219.98 167.2V215.77C215.98 212.77 211.7 210.97 207.98 211.64C205.017 212.333 202.424 214.119 200.72 216.64C198.88 219.9 201.92 221.94 205.84 226.42C209.76 230.9 213.16 236.22 216.7 239.52C218.447 241.291 220.522 242.704 222.81 243.68V250L227.11 252.49L255.59 231.08V224.75C255.59 224.75 259.65 208.53 260.95 201.75C262.2 195.23 263.35 184.82 261.2 179.42L263.53 179.26L263.52 179.3Z" fill="#2D87DA"/>
<path opacity="0.4" d="M263.52 179.3L259.17 176.79C257.28 175.71 254.97 176.79 253.75 177.53L251 176C247.71 174 243.13 178.17 242.11 179.16L240.93 178.49C237.44 176.39 231.09 182.02 231.09 182.02V161L233.85 159.67L229.46 157.13C228.831 156.851 228.14 156.742 227.455 156.814C226.771 156.886 226.117 157.136 225.56 157.54C223.936 158.598 222.584 160.024 221.614 161.702C220.644 163.381 220.085 165.265 219.98 167.2V215.77C215.98 212.77 211.7 210.97 207.98 211.64C205.017 212.333 202.424 214.119 200.72 216.64C198.88 219.9 201.92 221.94 205.84 226.42C209.76 230.9 213.16 236.22 216.7 239.52C218.447 241.291 220.522 242.704 222.81 243.68V250L227.11 252.49L255.59 231.08V224.75C255.59 224.75 259.65 208.53 260.95 201.75C262.2 195.23 263.35 184.82 261.2 179.42L263.53 179.26L263.52 179.3Z" fill="white"/>
<path d="M231.41 235.12L209.87 222.69L200.44 217.24C199.24 220.18 202.15 222.24 205.83 226.45C209.72 230.9 213.15 236.25 216.69 239.55C218.437 241.321 220.512 242.734 222.8 243.71V250L227.1 252.49L233.39 247.76C232.58 242.42 231.41 235.12 231.41 235.12Z" fill="#2D87DA"/>
<path d="M224.29 169.71L219.99 167.22V218.17L224.29 218.28V169.71Z" fill="#2D87DA"/>
<path d="M258.08 182.57L261.42 180.11C261.34 179.89 261.28 179.67 261.19 179.46L262.41 179.38L259.73 179.26L255.26 176.79C254.738 177 254.233 177.25 253.75 177.54L255.15 178.35L258.08 182.57Z" fill="#2D87DA"/>
<path d="M246.25 181.84L249.38 179.46L245.06 176.84C244.017 177.51 243.043 178.281 242.15 179.14L245.15 180.88L246.25 181.84Z" fill="#2D87DA"/>
<path d="M239.71 181.61L235.43 179.11L235.45 179.07V184.48L240.43 182.66L239.71 181.61Z" fill="#2D87DA"/>
<g opacity="0.15">
<path d="M231.41 235.12L209.87 222.69L200.44 217.24C199.24 220.18 202.15 222.24 205.83 226.45C209.72 230.9 213.15 236.25 216.69 239.55C218.437 241.321 220.512 242.734 222.8 243.71V250L227.1 252.49L233.39 247.76C232.58 242.42 231.41 235.12 231.41 235.12Z" fill="black"/>
<path d="M224.29 169.71L219.99 167.22V218.17L224.29 218.28V169.71Z" fill="black"/>
<path d="M258.08 182.57L261.42 180.11C261.34 179.89 261.28 179.67 261.19 179.46L262.41 179.38L259.73 179.26L255.26 176.79C254.738 177 254.233 177.25 253.75 177.54L255.15 178.35L258.08 182.57Z" fill="black"/>
<path d="M246.25 181.84L249.38 179.46L245.06 176.84C244.017 177.51 243.043 178.281 242.15 179.14L245.15 180.88L246.25 181.84Z" fill="black"/>
<path d="M239.71 181.61L235.43 179.11L235.45 179.07V184.48L240.43 182.66L239.71 181.61Z" fill="black"/>
</g>
<path d="M227.1 252.53V246.2C224.813 245.21 222.741 243.783 221 242C217.46 238.7 214 233.34 210.14 228.9C206.28 224.46 203.14 222.37 205.02 219.12C206.724 216.598 209.317 214.813 212.28 214.12C216.02 213.45 220.28 215.28 224.28 218.25V169.71C224.383 167.775 224.942 165.892 225.91 164.214C226.877 162.535 228.227 161.109 229.85 160.05C232.93 158.27 235.43 159.71 235.43 163.27V184.48C235.43 184.48 243.12 177.66 246.22 181.84C246.22 181.84 253.78 173.93 257.22 180.61C257.22 180.61 262.76 176.14 265.22 181.33C267.68 186.52 266.52 197.5 265.22 204.28C263.92 211.06 259.85 227.28 259.85 227.28V233.61L227.1 252.53Z" fill="#2D87DA"/>
<path d="M235.45 193.59C235.45 193.59 236.15 183.91 239.71 181.59H239.58C238.107 182.385 236.722 183.333 235.45 184.42V184.24C235.437 184.268 235.43 184.299 235.43 184.33C235.43 184.361 235.437 184.392 235.45 184.42V193.59Z" fill="#455A64"/>
<path d="M246.25 181.84V190.7C246.25 190.7 247.25 181.59 249.25 179.39C248.163 180.094 247.157 180.916 246.25 181.84Z" fill="#455A64"/>
<path d="M257.21 180.61V189.5C257.21 189.5 257.75 180.55 259.68 179.23C258.794 179.567 257.961 180.032 257.21 180.61Z" fill="#455A64"/>
<path d="M225.54 151.44C224.84 151.84 224.28 151.61 224.28 150.91V143.91C224.317 143.501 224.451 143.106 224.67 142.759C224.889 142.411 225.187 142.12 225.54 141.91C226.23 141.51 226.79 141.75 226.79 142.44V149.44C226.755 149.849 226.623 150.243 226.406 150.591C226.189 150.938 225.892 151.229 225.54 151.44Z" fill="#EBEBEB"/>
<path d="M215 162.53C214.51 163.37 213.72 163.83 213.23 163.53L209.16 161.18C208.67 160.9 208.67 159.98 209.16 159.18C209.65 158.33 210.44 157.87 210.93 158.18L215 160.53C215.53 160.76 215.53 161.68 215 162.53Z" fill="#EBEBEB"/>
<path d="M210.69 177.06V177.26C210.647 177.695 210.503 178.113 210.268 178.482C210.034 178.85 209.716 179.158 209.34 179.38L203.78 182.59C203.04 183.02 202.43 182.77 202.43 182.02V181.82C202.475 181.386 202.62 180.969 202.855 180.601C203.089 180.233 203.406 179.925 203.78 179.7L209.34 176.49C210.09 176.06 210.69 176.31 210.69 177.06Z" fill="#EBEBEB"/>
<path d="M240.38 160.12V159.92C240.421 159.484 240.565 159.064 240.8 158.694C241.034 158.323 241.353 158.014 241.73 157.79L247.29 154.58C248.03 154.15 248.64 154.41 248.64 155.15V155.35C248.595 155.784 248.45 156.202 248.215 156.57C247.981 156.938 247.664 157.246 247.29 157.47L241.73 160.68C241 161.11 240.38 160.86 240.38 160.12Z" fill="#EBEBEB"/>
<path d="M236 150.4C235.51 150.12 235.51 149.21 236 148.4L240.07 141.4C240.56 140.55 241.35 140.09 241.84 140.4C242.33 140.69 242.33 141.6 241.84 142.45L237.77 149.45C237.32 150.23 236.52 150.69 236 150.4Z" fill="#EBEBEB"/>
<path d="M394.22 315.22V314.08C393.77 315.41 391.69 321.16 388.54 324.08C386.03 326.37 382.6 329.01 381.73 331.56C380.86 334.11 386.5 335.11 388.84 334.7C391.57 334.21 395.09 332.7 397.01 330.31C398.36 328.65 399.22 326.69 400.18 325.38C401.14 324.07 403.36 322.63 403.89 321.12C404.17 320.29 403.83 318.47 403.43 316.94C403.03 315.41 402.66 313.99 402.18 314.12V315C401.039 315.892 399.627 316.365 398.18 316.34C397 316.34 394.21 316.1 394.22 315.22Z" fill="#263238"/>
<path d="M386.26 326.05C387.04 325.36 387.83 324.68 388.54 324.05C390.74 322.05 392.42 318.63 393.39 316.3C393.938 314.971 394.22 313.548 394.22 312.11V307.58H402.22V314.96V315.16C401.84 316.81 398.22 321.16 396.11 324.08C394.72 326 392.11 328.44 388.92 328.87C385.85 329.27 384.32 328.32 386.26 326.05Z" fill="#FFA8A7"/>
<path d="M363.19 307.37V306.23C362.74 307.57 360.65 313.32 357.5 316.23C354.99 318.52 351.56 321.17 350.69 323.72C349.82 326.27 355.46 327.27 357.8 326.85C360.53 326.37 364.05 324.85 365.97 322.47C367.32 320.81 368.18 318.84 369.14 317.54C370.1 316.24 372.33 314.78 372.85 313.27C373.13 312.44 372.79 310.63 372.39 309.1C371.99 307.57 371.62 306.1 371.14 306.27V307.14C370.002 308.037 368.589 308.514 367.14 308.49C366 308.49 363.18 308.26 363.19 307.37Z" fill="#263238"/>
<path d="M355.23 318.21C356 317.51 356.79 316.84 357.5 316.21C359.7 314.21 361.38 310.78 362.35 308.45C362.902 307.125 363.188 305.705 363.19 304.27V299.73H371.14V307.11V307.31C370.76 308.97 367.14 313.36 365.03 316.23C363.64 318.15 361.03 320.6 357.84 321.02C354.81 321.42 353.28 320.48 355.23 318.21Z" fill="#FFA8A7"/>
<path d="M400.6 191.55C406.77 205.02 400.37 252.49 400.37 252.49C400.56 254.67 403.06 258.98 403.99 268.6C405.09 279.97 402.26 308.52 402.26 308.52C401.052 309.218 399.693 309.612 398.3 309.668C396.906 309.724 395.519 309.439 394.26 308.84C394.26 308.84 386.68 265.84 385.26 254.54C384 244.67 381.58 223 381.58 223L374.79 254.5C375.78 257.68 376.5 260.939 376.94 264.24C377.59 270.89 371.14 301.85 371.14 301.85C371.14 301.85 368.4 302.85 363.19 302.09C363.19 302.09 360.91 261 360.31 252.99C359.31 239.54 362.87 197.56 365.31 189.6L400.6 191.55Z" fill="#37474F"/>
<path d="M381.58 223L379.58 210.48C379.58 210.48 371.1 208.73 367.26 205.11C369.907 208.22 373.371 210.526 377.26 211.77L379.51 221.41L375.58 250.58L381.58 223Z" fill="#263238"/>
<path d="M376.55 144.37C374.615 144.204 372.669 144.533 370.897 145.328C369.124 146.122 367.584 147.355 366.42 148.91C363.24 153.07 351.05 168.91 351.05 168.91C351.05 168.91 333.05 159.91 332.2 158.85C331.35 157.79 331.82 155.63 332.06 154.45C332.3 153.27 332.71 150.62 332.97 149.88C333.43 148.59 331.52 148.94 330.39 150.15C329.26 151.36 328.77 153.72 328.2 154.15C327.63 154.58 323.37 149.64 321.29 147.27C319.21 144.9 318.29 143.27 316.86 144.22C315.86 144.92 316.5 146.33 317.99 148.36C318.684 149.22 319.325 150.122 319.91 151.06C320.08 151.42 319.54 151.71 319.32 151.91C318.92 152.27 318.2 152.91 318.15 153.42C318.16 153.728 318.14 154.036 318.09 154.34C317.9 155.02 317.09 155.34 316.83 156C316.66 156.47 316.83 157 316.75 157.51C316.69 157.83 316.51 158.12 316.45 158.45C316.43 158.771 316.479 159.093 316.594 159.393C316.71 159.694 316.889 159.965 317.12 160.19C318.57 161.93 320.56 162.59 322.47 163.65C324.06 164.53 325.7 164.91 327.53 165.72C329.36 166.53 350.58 181.25 353.94 179.39C357.3 177.53 374.64 157.39 374.64 157.39C379.64 149.08 376.55 144.37 376.55 144.37Z" fill="#FFA8A7"/>
<path d="M389.72 144.74C397.62 145.29 398.18 149.11 400.16 153.28C401.609 156.502 401.742 160.162 400.53 163.48L395 179.42C395 179.42 397.58 185.66 400.58 191.55C386.75 199.27 369.48 195.21 365.32 189.55C365.14 188.35 366.21 179.01 366.87 172.91C364.43 166.8 363.79 162.91 364.82 158.91C366.73 151.41 374.13 144.11 377.41 144.37L389.72 144.74Z" fill="#F5F5F5"/>
<path d="M382.11 138.19H385.18C387.305 138.19 389.409 137.771 391.373 136.957C393.336 136.143 395.119 134.95 396.621 133.447C398.123 131.943 399.313 130.158 400.125 128.194C400.936 126.23 401.353 124.125 401.35 122C401.347 117.689 399.633 113.556 396.584 110.509C393.535 107.462 389.401 105.75 385.09 105.75H382.2C377.899 105.763 373.778 107.481 370.742 110.527C367.705 113.573 366 117.699 366 122C365.992 126.282 367.684 130.393 370.705 133.429C373.726 136.464 377.828 138.177 382.11 138.19Z" fill="#263238"/>
<path d="M410 146.71C407.468 146.708 405.04 145.701 403.25 143.91C401.46 142.12 400.453 139.692 400.45 137.16V116.7C401.705 116.7 402.948 116.948 404.107 117.428C405.266 117.909 406.319 118.613 407.206 119.501C408.093 120.389 408.797 121.443 409.276 122.603C409.755 123.762 410.001 125.005 410 126.26V146.71Z" fill="#263238"/>
<path d="M402.2 113.08L399.81 116.92C400.054 117.09 400.33 117.209 400.621 117.27C400.913 117.331 401.213 117.332 401.505 117.273C401.796 117.214 402.073 117.096 402.318 116.927C402.563 116.759 402.771 116.542 402.93 116.29C403.243 115.763 403.342 115.137 403.206 114.539C403.07 113.942 402.71 113.42 402.2 113.08Z" fill="#263238"/>
<path d="M371.76 112.93C369.89 114.03 367.58 118.73 367.81 128.59C368 136.95 370.71 139.01 372.07 139.59C373.43 140.17 376.07 139.82 378.6 139.39V144.39C378.6 144.39 375.08 148.48 375.3 150.78C375.52 153.08 380.39 153.62 383.69 151.38C385.825 149.837 387.659 147.916 389.1 145.71V133.63C389.367 133.959 389.697 134.231 390.07 134.431C390.444 134.631 390.853 134.755 391.275 134.795C391.697 134.835 392.122 134.791 392.526 134.664C392.931 134.538 393.306 134.333 393.63 134.06C396.45 132.19 396.56 127.56 394.92 125.9C393.28 124.24 389.75 124.77 389.1 127.06C389.1 127.06 385.03 127.21 379.62 124.24C377.513 123.106 375.703 121.49 374.337 119.525C372.972 117.56 372.089 115.301 371.76 112.93Z" fill="#FFA8A7"/>
<path d="M378.07 126.49C378.061 126.697 378.112 126.902 378.219 127.079C378.326 127.257 378.483 127.399 378.67 127.487C378.857 127.576 379.067 127.607 379.271 127.577C379.476 127.547 379.668 127.457 379.822 127.318C379.976 127.18 380.085 126.999 380.136 126.798C380.188 126.597 380.178 126.386 380.11 126.19C380.041 125.995 379.916 125.824 379.751 125.7C379.585 125.575 379.387 125.502 379.18 125.49C378.902 125.484 378.633 125.584 378.427 125.77C378.22 125.956 378.093 126.213 378.07 126.49Z" fill="#263238"/>
<path d="M376.86 133.58L374.42 134.35C374.464 134.513 374.54 134.665 374.643 134.798C374.747 134.931 374.877 135.042 375.024 135.124C375.171 135.206 375.334 135.258 375.501 135.276C375.669 135.294 375.838 135.279 376 135.23C376.329 135.12 376.603 134.886 376.763 134.579C376.923 134.271 376.958 133.913 376.86 133.58Z" fill="#F28F8F"/>
<path d="M369.46 123.27L371.58 121.79C371.491 121.648 371.374 121.525 371.236 121.429C371.098 121.333 370.942 121.266 370.777 121.233C370.613 121.199 370.443 121.199 370.278 121.233C370.114 121.267 369.958 121.334 369.82 121.43C369.535 121.632 369.339 121.936 369.272 122.278C369.205 122.621 369.272 122.976 369.46 123.27Z" fill="#263238"/>
<path d="M370 125.73C369.989 125.871 370.007 126.013 370.051 126.147C370.096 126.281 370.167 126.405 370.26 126.511C370.353 126.617 370.467 126.703 370.594 126.765C370.721 126.827 370.859 126.863 371 126.87C371.216 126.888 371.433 126.841 371.622 126.734C371.812 126.628 371.965 126.468 372.062 126.274C372.16 126.08 372.197 125.861 372.17 125.646C372.142 125.43 372.051 125.228 371.908 125.065C371.765 124.902 371.576 124.785 371.366 124.73C371.157 124.675 370.935 124.683 370.73 124.755C370.525 124.826 370.346 124.957 370.216 125.131C370.086 125.305 370.011 125.513 370 125.73Z" fill="#263238"/>
<path d="M375.08 125.13L374.91 131.46L371.58 130.43L375.08 125.13Z" fill="#F28F8F"/>
<path d="M378.6 139.41C381.29 139.06 386.82 137.47 387.68 135.29C387.332 136.396 386.655 137.369 385.74 138.08C384.09 139.49 378.6 141.08 378.6 141.08V139.41Z" fill="#F28F8F"/>
<path opacity="0.1" d="M386.18 193.05C387.264 192.801 388.287 192.337 389.189 191.687C390.091 191.037 390.854 190.213 391.433 189.264C392.013 188.314 392.397 187.259 392.563 186.159C392.729 185.06 392.673 183.938 392.4 182.86C392.24 182.203 391.862 181.619 391.329 181.203C390.795 180.788 390.136 180.564 389.46 180.57C390.348 179.982 391.11 179.224 391.704 178.34C392.298 177.457 392.711 176.464 392.92 175.42L394.6 165.42C394.803 163.791 394.657 162.138 394.17 160.57L399.73 154.14L400.73 154.85C401.575 157.674 401.494 160.695 400.5 163.47L395 179.42C395 179.42 397.58 185.66 400.58 191.55C396.083 193.976 391.119 195.409 386.022 195.754C380.924 196.099 375.812 195.348 371.03 193.55C376.066 194.34 381.207 194.17 386.18 193.05Z" fill="black"/>
<path d="M414.75 184.43C407.57 155.08 402.26 145.29 393.54 145.43C390.99 148.43 391.7 157.67 395.72 163.25C395.72 163.25 404.72 182.18 406.13 188.91C407.38 194.82 408.81 202.26 408.72 207.34C408.692 208.242 408.336 209.102 407.72 209.76C406.08 211.54 406.08 212.97 405.01 214.93C404.18 216.47 403.27 217.05 403.53 217.39C403.873 217.756 404.341 217.979 404.841 218.017C405.341 218.054 405.837 217.901 406.23 217.59C406.986 217.019 407.659 216.346 408.23 215.59C407.947 217.474 407.402 219.308 406.61 221.04C404.77 225.19 405.22 227.31 410.82 225.83C414.33 224.9 416.54 221.98 417.07 213.53C417.324 210.423 417.354 207.302 417.16 204.19C416.45 196.19 415.91 189.15 414.75 184.43Z" fill="#FFA8A7"/>
<path d="M343.51 268.34C344.28 239.77 341.99 232.93 334.39 227.7L331.44 244.25C331.44 244.25 334.9 263.75 334.53 270.25C334.21 275.96 333.65 283.1 332.3 287.71C332.063 288.541 331.524 289.254 330.79 289.71C328.85 290.92 328.07 292.16 326.61 293.71C325.47 294.91 324.5 295.2 324.61 295.58C324.831 296 325.201 296.321 325.647 296.48C326.094 296.639 326.584 296.625 327.02 296.44C327.987 296.05 328.907 295.55 329.76 294.95C329.09 296.701 328.141 298.332 326.95 299.78C324.23 303.11 324.11 305.16 329.6 305.21C333.03 305.21 335.77 303.12 338.36 295.55C339.364 292.774 340.17 289.931 340.77 287.04C342.13 279.49 343.39 272.94 343.51 268.34Z" fill="#B16668"/>
<path d="M328 225.53C331.63 225 336.56 225.76 339.75 231.46C342.94 237.16 343.75 246.97 344.08 256.72C344.08 256.72 337.75 262.01 330.15 259.41L328 225.53Z" fill="#2D87DA"/>
<path opacity="0.1" d="M328 225.53C331.63 225 336.56 225.76 339.75 231.46C342.94 237.16 343.75 246.97 344.08 256.72C344.08 256.72 337.75 262.01 330.15 259.41L328 225.53Z" fill="black"/>
<path d="M338.67 382.64C339.24 382.86 339.39 383.96 339.48 386.14C339.54 387.79 339.9 390.68 337.96 391.25C336.02 391.82 333.19 391.53 331.96 389.98C330.41 387.98 329.37 386.32 327.16 383.98C325.24 381.92 323.16 379.98 322.4 377.12C321.7 374.51 322.28 373.38 324.06 372.62C326.5 371.62 330.35 374.99 332.26 375.52C333.9 376 338.09 382.42 338.67 382.64Z" fill="#263238"/>
<path d="M338.67 380.62V383.3C337.663 383.944 336.5 384.301 335.305 384.333C334.11 384.365 332.93 384.07 331.89 383.48C331.78 383.22 331.19 379.65 331.19 379.65L338.67 380.62Z" fill="#B16668"/>
<path d="M317 398.09C317.468 399.526 317.861 400.985 318.18 402.46C318.51 404.08 318.98 406.79 318.42 408.01C317.86 409.23 315.64 410.01 312.2 410.01C309.98 410.01 306.52 411.5 304.15 412.82C301.78 414.14 296.6 414.73 294.01 414.43C290.96 414.07 287.8 412.3 287.3 411.03C286.8 409.76 287.46 408.46 294.66 405.39C294.73 405.39 304.66 402.13 308.14 398.29L317 398.09Z" fill="#263238"/>
<path d="M317 395.19C317 395.19 317 397.19 317 398.32C317 399.45 315.67 401.15 312.19 401.02C309.75 400.94 308.05 400.28 308.19 398.27V395.37L317 395.19Z" fill="#B16668"/>
<path d="M340.41 345.05C339.817 340.292 338.758 335.602 337.25 331.05C337.25 331.05 338.2 319.05 338.66 307.59C339.16 295.25 338.66 279.75 338.87 276.67C338.87 276.67 299.07 268.67 298.36 282.87C297.65 297.07 299.93 333.43 300.36 339.69C300.79 345.95 301.91 351.5 303.21 361.69C304.51 371.88 308.06 395.37 308.06 395.37C309.438 396.071 310.967 396.421 312.513 396.39C314.058 396.359 315.572 395.946 316.92 395.19C316.92 395.19 319.72 366.68 319.43 359.45C319.204 354.097 318.283 348.796 316.69 343.68C316.69 343.68 317.44 331.92 318.11 321.68C318.78 311.44 319.48 306.54 319.63 302.1L320.49 301.67C320.49 301.67 321.36 319.31 321.83 325.58C322.3 331.85 323.3 337.85 325.11 349.48C326.69 359.58 331.37 380.93 331.37 380.93C335.91 383.39 338.63 380.61 338.63 380.61C338.63 380.61 341.64 353.81 340.41 345.05Z" fill="#37474F"/>
<path d="M319.67 302.11C319.67 302.11 329.33 297.35 334.16 293.06C334.16 293.06 329.67 299.38 323.78 302.18C323.78 302.18 321.69 324.1 321.7 323.66L320.49 302.07L319.67 302.11Z" fill="#263238"/>
<path d="M311.08 221.01L313.44 233.97L325.14 233.12L322.69 218.42L311.08 221.01Z" fill="#B16668"/>
<path d="M337.51 232.17C336.35 228.65 331.88 224.81 327.41 225.64C320.762 226.77 314.21 228.404 307.81 230.53C303.71 232 299.98 235.53 299.64 249.01C299.64 249.01 298.27 280.43 298.25 286.5C308.53 290.57 319.25 290.45 325.14 289.16C337.46 286.47 338.94 281.36 338.94 281.36C338.94 281.36 339.1 258.77 338.73 249.01C338.42 240.72 338.31 234.59 337.51 232.17Z" fill="#2D87DA"/>
<path d="M302.05 205.24C302.05 205.24 299.05 209.98 299.44 210.43C299.83 210.88 302.07 211.24 302.07 211.24L302.05 205.24Z" fill="#B16668"/>
<path d="M310.29 192.15C304.1 193.6 302.37 196.37 302 206.27C301.62 216.61 302.75 219.83 304.14 221.19C305.07 222.11 310.14 222.19 312.72 221.4C315.91 220.4 323.12 217.7 326.4 212.4C330.26 206.2 331.13 197.9 326.77 194.59C320.63 190 312.81 191.55 310.29 192.15Z" fill="#B16668"/>
<path d="M311.21 221.72C313.31 220.03 313.12 218.94 313.12 218.94C311.62 220.35 306.04 221.55 304.12 221.19C304.91 222 308.54 222.12 311.21 221.72Z" fill="#9A4A4D"/>
<path d="M302.07 194.72C303.89 197.83 307.83 199.32 307.83 199.32C309.02 200.67 308.36 205.95 310.45 206.78C310.45 206.78 311.35 202.94 314.58 203.35C317.81 203.76 318.36 207.88 316.37 210.43C314.38 212.98 312.47 212.07 312.47 212.07C312.47 212.07 312.69 217.52 315.18 220.56C315.18 220.56 317.95 221.39 322.98 220.19C326.08 219.46 330.39 215.47 332.14 211.32C335.86 202.52 335.95 194.68 330.34 192.46C329.65 188.46 326.45 186.73 322.83 185.98C315.04 184.38 310.02 189.24 304.02 188.82C300.58 188.58 299.94 191.07 302.07 194.72Z" fill="#263238"/>
<path d="M330.47 193.8L334.14 191.52C333.838 191.034 333.354 190.687 332.796 190.557C332.239 190.426 331.652 190.523 331.165 190.825C330.678 191.128 330.332 191.611 330.201 192.169C330.071 192.727 330.168 193.314 330.47 193.8Z" fill="#263238"/>
<path d="M308.13 230.48C308.13 230.48 302.31 231.56 299.27 236.16C296.23 240.76 283.07 257.26 283.07 257.26C283.07 257.26 264.15 247.79 263.22 246.66C262.29 245.53 262.81 243.27 263.07 242.02C263.33 240.77 263.75 238.02 264.07 237.22C264.55 235.85 262.54 236.22 261.35 237.49C260.16 238.76 259.64 241.25 259.05 241.68C258.46 242.11 253.95 236.93 251.77 234.43C249.59 231.93 248.56 230.18 247.09 231.21C246.04 231.96 246.72 233.44 248.28 235.58C249.014 236.477 249.682 237.427 250.28 238.42C250.47 238.8 249.89 239.11 249.67 239.31C249.24 239.69 248.49 240.31 248.43 240.91C248.462 241.243 248.462 241.577 248.43 241.91C248.22 242.62 247.34 242.91 247.09 243.65C246.91 244.16 247.09 244.72 247.01 245.25C246.94 245.59 246.76 245.89 246.69 246.25C246.671 246.59 246.724 246.929 246.846 247.247C246.969 247.564 247.158 247.851 247.4 248.09C248.93 249.92 251.03 250.62 253.04 251.73C254.71 252.66 256.44 253.06 258.37 253.92C260.3 254.78 282.98 271.54 286.52 269.59C290.06 267.64 308.2 246.44 308.2 246.44C309.733 244.058 310.542 241.282 310.529 238.45C310.517 235.617 309.683 232.849 308.13 230.48Z" fill="#B16668"/>
<path d="M310.16 229.8C307.66 230.08 304.16 229.62 299.25 234.88C295.309 239.394 291.636 244.136 288.25 249.08C288.895 251.678 290.276 254.034 292.227 255.867C294.179 257.699 296.617 258.929 299.25 259.41C299.25 259.41 307.83 250.62 310.25 245.77C312.67 240.92 313.1 233.06 310.16 229.8Z" fill="#2D87DA"/>
<path opacity="0.1" d="M310.16 229.8C307.66 230.08 304.16 229.62 299.25 234.88C295.309 239.394 291.636 244.136 288.25 249.08C288.895 251.678 290.276 254.034 292.227 255.867C294.179 257.699 296.617 258.929 299.25 259.41C299.25 259.41 307.83 250.62 310.25 245.77C312.67 240.92 313.1 233.06 310.16 229.8Z" fill="black"/>
</svg>
