<svg width="30" height="29" viewBox="0 0 30 29" fill="none" xmlns="http://www.w3.org/2000/svg">
<g id="Communication / Chat_Circle">
<path id="Vector" d="M9.38721 23.2523C11.0391 24.1472 12.9557 24.6593 14.9996 24.6593C21.2128 24.6593 26.25 19.9278 26.25 14.0911C26.25 8.25448 21.2132 3.52295 15 3.52295C8.7868 3.52295 3.75 8.25448 3.75 14.0911C3.75 16.0112 4.29505 17.8116 5.24774 19.3633L5.25143 19.3693C5.3431 19.5186 5.38932 19.5939 5.41026 19.6651C5.43001 19.7322 5.43552 19.7925 5.43047 19.862C5.42503 19.9366 5.39825 20.014 5.34335 20.1688L4.38232 22.8771L4.38111 22.8807C4.17835 23.4521 4.07696 23.7378 4.14923 23.9282C4.21224 24.0942 4.35211 24.2252 4.52881 24.2844C4.73102 24.3521 5.03381 24.2573 5.63943 24.0677L5.64697 24.0651L8.53006 23.1623C8.69422 23.1109 8.77767 23.0848 8.85699 23.0797C8.93094 23.075 8.99472 23.0812 9.06616 23.0998C9.1421 23.1195 9.22229 23.1629 9.38204 23.2495L9.38721 23.2523Z" stroke="white" stroke-width="2" stroke-linecap="round" stroke-linejoin="round"/>
</g>
</svg>
