<svg width="20" height="20" viewBox="0 0 20 20" fill="none" xmlns="http://www.w3.org/2000/svg">
<path d="M10.3985 19.1998C5.32502 19.1998 1.1969 15.0732 1.1969 9.9998C1.1969 4.92637 5.32502 0.799805 10.3985 0.799805C12.6969 0.799805 14.8969 1.65137 16.5953 3.19824L16.9047 3.48105L13.8703 6.51543L13.5891 6.2748C12.6985 5.5123 11.5656 5.09199 10.3985 5.09199C7.69221 5.09199 5.48909 7.29355 5.48909 9.9998C5.48909 12.7061 7.69221 14.9076 10.3985 14.9076C12.35 14.9076 13.8922 13.9107 14.6188 12.2123H9.99846V8.07012L19.0188 8.08262L19.086 8.3998C19.5563 10.6326 19.1797 13.917 17.2735 16.267C15.6953 18.2123 13.3828 19.1998 10.3985 19.1998Z" fill="white"/>
</svg>
