<svg width="30" height="29" viewBox="0 0 30 29" fill="none" xmlns="http://www.w3.org/2000/svg">
<path d="M11.25 7.16581L15 3.58301M15 3.58301L18.75 7.16581M15 3.58301V15.5257M8.75029 11.9429C7.58543 11.9429 7.00301 11.9429 6.54358 12.1247C5.93101 12.3671 5.44404 12.8324 5.1903 13.4176C5 13.8566 5 14.4128 5 15.5257V21.2582C5 22.5959 5 23.2643 5.27248 23.7752C5.51217 24.2246 5.89434 24.5907 6.36475 24.8197C6.899 25.0798 7.59874 25.0798 8.99614 25.0798H21.0045C22.4019 25.0798 23.1006 25.0798 23.6349 24.8197C24.1053 24.5907 24.4881 24.2246 24.7278 23.7752C25 23.2648 25 22.5969 25 21.2619V15.5257C25 14.4128 24.9999 13.8566 24.8096 13.4176C24.5558 12.8324 24.0693 12.3671 23.4567 12.1247C22.9973 11.9429 22.4149 11.9429 21.25 11.9429" stroke="white" stroke-width="2" stroke-linecap="round" stroke-linejoin="round"/>
</svg>
