<svg width="30" height="29" viewBox="0 0 30 29" fill="none" xmlns="http://www.w3.org/2000/svg">
<path d="M15 10.7483V15.5253M5.47363 18.1525C4.33684 20.0337 3.76861 20.9746 3.85352 21.7465C3.92758 22.4197 4.2974 23.0313 4.87061 23.4292C5.52755 23.8852 6.66363 23.8852 8.93567 23.8852H21.0643C23.3364 23.8852 24.4723 23.8852 25.1292 23.4292C25.7024 23.0313 26.0724 22.4197 26.1465 21.7465C26.2314 20.9746 25.6633 20.0337 24.5265 18.1525L18.4644 8.12064C17.3276 6.23945 16.7589 5.29902 16.0168 4.98336C15.3696 4.70802 14.63 4.70802 13.9827 4.98336C13.241 5.29888 12.6727 6.23933 11.5368 8.11895L5.47363 18.1525ZM15.0635 19.1081V19.2276L14.9377 19.2278V19.1081H15.0635Z" stroke="white" stroke-width="2" stroke-linecap="round" stroke-linejoin="round"/>
</svg>
